<?xml version="1.0" encoding="UTF-8" standalone="no"?>
<svg
   width="64"
   height="64"
   version="1.1"
   id="svg73"
   sodipodi:docname="com.system76.CosmicEdit.svg"
   inkscape:version="1.4.4 (dcaf3e7d9e, 2026-05-05)"
   xmlns:inkscape="http://www.inkscape.org/namespaces/inkscape"
   xmlns:sodipodi="http://sodipodi.sourceforge.net/DTD/sodipodi-0.dtd"
   xmlns="http://www.w3.org/2000/svg"
   xmlns:svg="http://www.w3.org/2000/svg"
   xmlns:rdf="http://www.w3.org/1999/02/22-rdf-syntax-ns#"
   xmlns:cc="http://creativecommons.org/ns#"
   xmlns:dc="http://purl.org/dc/elements/1.1/">
  <metadata
     id="metadata77">
    <rdf:RDF>
      <cc:Work
         rdf:about="">
        <dc:format>image/svg+xml</dc:format>
        <dc:type
           rdf:resource="http://purl.org/dc/dcmitype/StillImage" />
      </cc:Work>
    </rdf:RDF>
  </metadata>
  <sodipodi:namedview
     pagecolor="#f5f7fa"
     bordercolor="#666666"
     borderopacity="1"
     objecttolerance="10"
     gridtolerance="10"
     guidetolerance="10"
     inkscape:pageopacity="0"
     inkscape:pageshadow="2"
     inkscape:window-width="1390"
     inkscape:window-height="673"
     id="namedview75"
     showgrid="false"
     inkscape:zoom="6.2890625"
     inkscape:cx="31.324224"
     inkscape:cy="39.592547"
     inkscape:window-x="20"
     inkscape:window-y="20"
     inkscape:window-maximized="0"
     inkscape:current-layer="g877"
     inkscape:document-rotation="0"
     inkscape:pagecheckerboard="0"
     inkscape:showpageshadow="2"
     inkscape:deskcolor="#d1d1d1" />
  <defs
     id="defs29">
    <filter
       style="color-interpolation-filters:sRGB;"
       inkscape:label="Blur"
       id="filter1"
       x="-0.091333304"
       y="-0.091333304"
       width="1.1826666"
       height="1.1826666">
      <feGaussianBlur
         stdDeviation="1.3 1.3"
         result="blur"
         id="feGaussianBlur1" />
    </filter>
  </defs>
  <circle
     cx="32.516094"
     cy="31.877844"
     r="0"
     fill="url(#b)"
     stroke-width="1.5715"
     id="circle41"
     style="fill:url(#b)" />
  <g
     aria-label="GZ"
     transform="matrix(1.2212657,0,0,0.81882264,0.4960938,-0.1661539)"
     id="text93"
     style="font-weight:bold;font-size:11.5263px;line-height:1.25;font-family:sans-serif;-inkscape-font-specification:'sans-serif Bold';fill:#f2f2f2;stroke-width:0.288159" />
  <g
     id="g877"
     transform="matrix(1.1,0,0,1.1,-3.1845928,-3.2065454)">
    <rect
       style="fill:none;fill-opacity:1;stroke:#000000;stroke-width:2.72727;stroke-dasharray:none;stroke-opacity:1;filter:url(#filter1);opacity:0.5"
       id="rect1-5"
       width="49.090908"
       height="49.090908"
       x="7.4405394"
       y="7.4604964"
       rx="7.4768682"
       ry="7.477273" />
    <rect
       style="opacity:1;fill:#c4c2c5;stroke-width:2.72727273;stroke-opacity:1;fill-opacity:1;stroke:#1e2430;stroke-dasharray:none"
       id="rect1"
       width="49.090908"
       height="49.090908"
       x="7.4405394"
       y="7.4604964"
       rx="7.4768682"
       ry="7.477273" />
    <rect
       style="fill:#1e2430;fill-opacity:1;stroke:none;stroke-width:2.33829;stroke-dasharray:none;stroke-opacity:1"
       id="rect1-6"
       width="42.089317"
       height="42.089317"
       x="10.941335"
       y="10.961291"
       rx="5.5927272"
       ry="5.5927272" />
    <path
       id="path2-6"
       style="fill:#f4e3cf;stroke:none;stroke-width:0.066864;fill-opacity:1"
       d="m 19.920872,18.829699 c -0.619219,0.129129 -1.171952,0.565818 -1.465088,1.157383 l -0.176867,0.357351 -0.01138,11.558309 c -0.01086,11.414515 -0.0098,11.561394 0.07189,11.831369 0.103566,0.342239 0.342997,0.717276 0.610755,0.95569 0.254337,0.226487 0.734315,0.454957 1.052917,0.501637 v 5.26e-4 c 0.353923,0.05169 23.574243,0.05335 23.932685,0.0013 0.779113,-0.112594 1.4688,-0.706026 1.696766,-1.459397 0.08169,-0.269977 0.08274,-0.416851 0.07193,-11.831369 l -0.01145,-11.5583 -0.17684,-0.357351 c -0.29324,-0.591513 -0.845972,-1.028201 -1.465198,-1.157331 -0.314438,-0.06558 -23.815785,-0.06558 -24.13023,0 z m 7.029625,2.051018 c 0.540183,-0.01309 0.631769,-0.0048 0.846057,0.07551 0.349779,0.131102 0.613901,0.358018 0.784,0.673331 0.137836,0.255499 0.145108,0.289951 0.159283,0.769002 0.01283,0.433666 0.0025,0.533475 -0.075,0.739527 -0.122653,0.326485 -0.401308,0.625754 -0.737456,0.791239 -0.254769,0.125422 -0.303973,0.134336 -0.8021,0.147387 -0.606838,0.01589 -0.867283,-0.03696 -1.18686,-0.242025 -0.421997,-0.270796 -0.622211,-0.655234 -0.651091,-1.250987 -0.03008,-0.620389 0.110453,-1.004762 0.492328,-1.349761 0.316814,-0.286223 0.483374,-0.336595 1.170828,-0.353215 z m 10.070981,0 c 0.512346,0.01241 0.636463,0.02859 0.803142,0.104989 0.2933,0.134428 0.587712,0.431436 0.727628,0.734352 0.111573,0.241525 0.119894,0.296872 0.119493,0.761763 -3.99e-4,0.428703 -0.01392,0.530788 -0.09307,0.703325 -0.201308,0.438444 -0.535603,0.722171 -0.991377,0.840886 -0.267287,0.06962 -0.919646,0.08079 -1.224616,0.02069 -0.440705,-0.08686 -0.893161,-0.476502 -1.055505,-0.908638 -0.07741,-0.206049 -0.0878,-0.30586 -0.075,-0.739524 0.01416,-0.479052 0.02144,-0.513504 0.159286,-0.769003 0.170131,-0.315311 0.434222,-0.542227 0.784,-0.67333 0.214287,-0.08032 0.30587,-0.08856 0.846053,-0.07551 z m -14.960638,0.01345 c 0.64883,0 0.701675,0.0059 0.898289,0.102915 0.265018,0.130811 0.561058,0.424837 0.684191,0.679532 0.212762,0.440084 0.207302,1.182952 -0.0119,1.61092 -0.137938,0.269298 -0.413699,0.525446 -0.714195,0.663508 -0.224359,0.103085 -0.305204,0.116556 -0.772623,0.127219 -0.616479,0.01404 -0.877316,-0.04323 -1.198718,-0.263247 -0.449202,-0.307474 -0.667549,-0.822226 -0.629901,-1.484215 0.03454,-0.607282 0.327364,-1.079029 0.819684,-1.320801 0.228692,-0.11231 0.256311,-0.115839 0.925182,-0.115839 z m 9.925148,0 c 0.632782,0 0.680771,0.0056 0.898289,0.108084 0.291007,0.137265 0.54973,0.396407 0.698672,0.699704 0.109013,0.221999 0.116361,0.270312 0.116361,0.779863 0,0.511865 -0.0067,0.555985 -0.114809,0.761245 -0.230545,0.43731 -0.540488,0.686312 -0.986207,0.791222 -0.291474,0.0686 -0.957465,0.06753 -1.244264,-0.0021 -0.439245,-0.106591 -0.770002,-0.384809 -0.972758,-0.817089 -0.09892,-0.210896 -0.108601,-0.278646 -0.108601,-0.754006 0,-0.486702 0.0081,-0.538655 0.116355,-0.759176 0.148942,-0.303296 0.407664,-0.562439 0.69867,-0.699705 0.217516,-0.102602 0.265508,-0.10808 0.89829,-0.10808 z m 9.925147,0 c 0.679949,0 0.693148,0.0016 0.931906,0.122569 0.497065,0.251862 0.770953,0.694224 0.810377,1.307875 0.05206,0.81034 -0.278484,1.389112 -0.948456,1.661603 -0.216959,0.08825 -1.123542,0.12833 -1.390095,0.06154 -0.397565,-0.09962 -0.79362,-0.406877 -0.971209,-0.753496 -0.208299,-0.406577 -0.232458,-1.057984 -0.05689,-1.527146 0.103623,-0.277093 0.401722,-0.595821 0.704875,-0.753488 0.225745,-0.117422 0.24223,-0.119458 0.919486,-0.119461 z m -20.539657,5.265606 h 10.61451 10.61451 l 0.230105,0.108085 c 0.433756,0.204266 0.663036,0.473305 0.77469,0.90915 0.05404,0.21108 0.06079,1.199218 0.05119,7.594869 l -0.01083,7.351807 -0.09097,0.197039 c -0.127935,0.276876 -0.435598,0.59061 -0.694016,0.707461 l -0.218229,0.0983 -10.572618,0.0071 c -6.075569,0.003 -10.639956,-0.0093 -10.730382,-0.03109 -0.380184,-0.09024 -0.745686,-0.400736 -0.922665,-0.783685 L 20.326298,42.1239 20.31544,34.772089 c -0.0096,-6.395914 -0.0028,-7.384053 0.05118,-7.595133 0.111685,-0.435788 0.34097,-0.704825 0.774719,-0.909092 z m 7.458858,3.492841 c -0.148001,0.0076 -0.291675,0.02992 -0.396652,0.06568 -0.255506,0.08707 -0.527462,0.353043 -0.596275,0.583345 -0.03919,0.131151 -0.05119,1.171103 -0.05119,4.378714 0,4.603577 -0.01227,4.368262 0.242544,4.636774 0.131697,0.138762 0.359729,0.263204 0.581795,0.317527 0.186896,0.04575 0.608348,0.01423 0.784516,-0.05892 0.10463,-0.04337 6.626391,-3.953547 6.973777,-4.181156 0.06204,-0.04066 0.159207,-0.152473 0.215628,-0.248753 0.213517,-0.364325 0.172731,-0.809495 -0.101362,-1.107724 -0.181585,-0.197643 -7.012284,-4.317491 -7.230766,-4.361188 -0.121622,-0.02433 -0.273992,-0.03179 -0.421994,-0.02431 z" />
  </g>
</svg>
